HIERARCHY
ROOT root
{
	OFFSET 0.000000 0.000000 0.000000
	CHANNELS 6 Xposition Yposition Zposition Zrotation Yrotation Xrotation
	JOINT lhip
	{
		OFFSET 0.058581 -0.082280 -0.017664
		CHANNELS 3 Zrotation Yrotation Xrotation
		JOINT lknee
		{
			OFFSET 0.043451 -0.386469 0.008037
			CHANNELS 3 Zrotation Yrotation Xrotation
			JOINT lankle
			{
				OFFSET -0.014790 -0.426874 -0.037428
				CHANNELS 3 Zrotation Yrotation Xrotation
				JOINT ltoe
				{
					OFFSET 0.041054 -0.060286 0.122042
					CHANNELS 3 Zrotation Yrotation Xrotation
					End Site
					{
						OFFSET 0.000000 0.000000 0.000000
					}
				}
			}
		}
	}
	JOINT rhip
	{
		OFFSET -0.060310 -0.090513 -0.013543
		CHANNELS 3 Zrotation Yrotation Xrotation
		JOINT rknee
		{
			OFFSET -0.043257 -0.383688 -0.004843
			CHANNELS 3 Zrotation Yrotation Xrotation
			JOINT rankle
			{
				OFFSET 0.019056 -0.420046 -0.034562
				CHANNELS 3 Zrotation Yrotation Xrotation
				JOINT rtoe
				{
					OFFSET -0.034840 -0.062106 0.130323
					CHANNELS 3 Zrotation Yrotation Xrotation
					End Site
					{
						OFFSET 0.000000 0.000000 0.000000
					}
				}
			}
		}
	}
	JOINT lowerback
	{
		OFFSET 0.004439 0.124404 -0.038385
		CHANNELS 3 Zrotation Yrotation Xrotation
		JOINT upperback
		{
			OFFSET 0.004488 0.137956 0.026820
			CHANNELS 3 Zrotation Yrotation Xrotation
			JOINT chest
			{
				OFFSET -0.002265 0.056032 0.002855
				CHANNELS 3 Zrotation Yrotation Xrotation
				JOINT lowerneck
				{
					OFFSET -0.013390 0.211636 -0.033468
					CHANNELS 3 Zrotation Yrotation Xrotation
					JOINT upperneck
					{
						OFFSET 0.010113 0.088937 0.050410
						CHANNELS 3 Zrotation Yrotation Xrotation
						End Site
						{
							OFFSET 0.000000 0.000000 0.000000
						}
					}
				}
				JOINT lclavicle
				{
					OFFSET 0.071702 0.114000 -0.018898
					CHANNELS 3 Zrotation Yrotation Xrotation
					JOINT lshoulder
					{
						OFFSET 0.122921 0.045205 -0.019046
						CHANNELS 3 Zrotation Yrotation Xrotation
						JOINT lelbow
						{
							OFFSET 0.255332 -0.015649 -0.022946
							CHANNELS 3 Zrotation Yrotation Xrotation
							JOINT lwrist
							{
								OFFSET 0.265709 0.012698 -0.007375
								CHANNELS 3 Zrotation Yrotation Xrotation
								End Site
								{
									OFFSET 0.000000 0.000000 0.000000
								}
							}
						}
					}
				}
				JOINT rclavicle
				{
					OFFSET -0.082954 0.112472 -0.023707
					CHANNELS 3 Zrotation Yrotation Xrotation
					JOINT rshoulder
					{
						OFFSET -0.113228 0.046853 -0.008472
						CHANNELS 3 Zrotation Yrotation Xrotation
						JOINT relbow
						{
							OFFSET -0.260127 -0.014369 -0.031269
							CHANNELS 3 Zrotation Yrotation Xrotation
							JOINT rwrist
							{
								OFFSET -0.269108 0.006794 -0.006027
								CHANNELS 3 Zrotation Yrotation Xrotation
								End Site
								{
									OFFSET 0.000000 0.000000 0.000000
								}
							}
						}
					}
				}
			}
		}
	}
}
MOTION
Frames: 12
Frame Time: 0.033333
-0.234906 2.443384 0.920408 -124.337633 2.457960 97.914318 6.347734 -0.633701 -41.709198 -7.111044 5.629123 33.505468 4.869786 10.173894 -13.350946 0.000000 -0.000000 0.000000 -13.783804 -12.263408 -29.001124 0.031778 -7.898952 59.419581 9.520830 -3.999575 -18.252771 0.000000 -0.000000 0.000000 -1.433063 9.068576 51.449429 -3.553013 -2.318650 -5.732901 -0.703833 1.132007 -0.452175 -11.417952 9.932784 -23.632433 -2.349235 -1.435664 5.445800 -22.158659 -15.154809 -5.271930 -26.065514 -10.987343 11.738277 11.513335 -61.009555 -8.788115 12.211299 -11.470189 -18.174694 28.110177 23.184286 -0.679170 33.565765 19.685563 12.289814 -34.593023 53.412930 -41.956674 5.039228 12.110189 -11.749629 
-0.232514 2.454016 0.923024 -123.749891 2.880105 98.355899 7.022898 -0.123824 -41.634785 -7.183784 4.659702 33.007231 4.117654 9.965272 -13.162535 0.000000 -0.000000 0.000000 -13.365049 -11.367683 -30.610580 0.376919 -5.554582 54.738843 9.938247 -2.737198 -18.961681 0.000000 -0.000000 0.000000 -1.401991 8.411860 51.155634 -3.102793 -2.332549 -5.937501 -0.484305 1.183317 -0.199167 -11.817661 10.580881 -23.646274 -2.491000 -1.673534 5.202722 -21.675169 -14.986869 -5.627793 -25.136311 -12.033590 11.212829 14.007634 -61.828180 -11.457038 12.624987 -11.178025 -18.782936 28.208908 22.673854 -0.612896 33.147020 19.523116 12.181944 -34.818267 53.522458 -41.910309 5.719712 12.047133 -11.713829 
-0.227867 2.464918 0.924039 -123.171639 3.149951 98.843377 7.705729 0.353353 -41.940108 -7.352953 4.026359 32.749395 3.754225 10.029312 -12.813655 0.000000 -0.000000 0.000000 -12.845782 -10.133584 -32.970342 3.014941 -2.049260 51.999230 10.160467 0.225961 -19.022091 0.000000 -0.000000 0.000000 -1.629000 7.862794 50.429129 -2.574379 -2.050354 -5.599655 -0.297751 0.975312 -0.174191 -11.990716 11.284521 -23.743693 -2.797614 -1.566373 4.964493 -21.620053 -14.795396 -6.105613 -24.073282 -12.625861 11.037141 15.682539 -62.498051 -14.176825 14.414331 -11.042736 -19.210764 28.465298 22.145196 -0.603280 32.482704 19.443257 12.502266 -34.104310 53.830181 -41.717370 4.524173 12.303225 -12.403165 
-0.221595 2.477054 0.925092 -122.796699 3.256512 98.990063 8.631537 0.559310 -41.725492 -7.481863 3.641301 32.233133 3.054627 10.151413 -12.525211 0.000000 -0.000000 0.000000 -12.108788 -8.044408 -34.849504 5.004264 1.184812 50.704072 10.455749 2.895422 -19.238110 0.000000 -0.000000 0.000000 -2.057334 7.305766 50.073785 -2.289159 -1.616145 -5.325464 -0.239465 0.911590 -0.347786 -12.256738 11.846644 -23.869564 -2.866124 -1.659032 4.936953 -21.886370 -14.518735 -6.111183 -23.119714 -12.816946 10.899988 17.916509 -62.831189 -17.667115 15.756559 -11.286169 -19.211741 29.036124 21.754363 -0.341551 31.601053 19.309040 12.566441 -32.912550 54.185952 -40.836375 3.188015 12.733032 -12.778089 
-0.214516 2.490316 0.926404 -121.972319 3.007145 98.626495 9.054130 0.470669 -40.985583 -7.398783 2.922301 31.649491 2.196245 10.179594 -12.056498 0.000000 -0.000000 0.000000 -11.353854 -6.085435 -35.645844 4.924124 2.541461 50.890224 10.413043 3.672508 -19.322615 0.000000 -0.000000 0.000000 -2.353046 6.607966 50.541212 -2.165494 -1.463376 -5.354359 -0.216057 0.864109 -0.498551 -12.384032 12.229334 -23.631905 -2.905080 -1.457067 4.331018 -22.296898 -14.289020 -5.902718 -22.660559 -12.338349 11.055684 20.700127 -63.258151 -21.253721 16.850353 -11.241394 -19.693175 29.332375 21.476419 -0.346500 31.262634 18.916592 12.753236 -32.280724 54.389525 -40.091795 2.751737 12.672863 -12.859991 
-0.206503 2.504182 0.926637 -120.741120 2.250570 98.118817 8.941201 0.186608 -40.199398 -7.414857 2.229689 30.914447 1.817904 10.206982 -11.323852 0.000000 -0.000000 0.000000 -11.035716 -4.810013 -35.912538 5.521988 2.834055 52.365665 10.144750 4.273578 -18.674792 0.000000 -0.000000 0.000000 -2.655970 5.751967 50.987446 -2.216516 -1.553509 -5.259731 -0.414256 0.802327 -0.669904 -12.352161 12.209157 -23.747016 -2.858267 -1.295406 4.377820 -23.018092 -13.815805 -5.771016 -22.231022 -11.512438 11.210121 22.065508 -63.917075 -23.344438 17.070501 -11.297690 -19.256441 29.531367 21.193319 -0.508450 31.357747 18.487605 13.041877 -31.673134 54.377133 -39.578345 3.486067 12.633251 -12.256423 
-0.197176 2.518195 0.925884 -119.005146 1.068530 97.623745 8.406468 -0.238699 -39.498080 -7.405162 1.288839 29.972060 1.301377 9.743365 -10.317645 0.000000 -0.000000 0.000000 -10.827104 -4.200225 -35.521263 5.207194 2.653547 53.776809 8.706502 2.764494 -18.717772 0.000000 -0.000000 0.000000 -2.840926 4.892549 51.441281 -2.364844 -1.758286 -5.453825 -0.615995 0.682314 -0.670572 -12.459754 11.462541 -23.459846 -2.578949 -0.779048 4.268269 -23.907223 -13.182957 -5.662223 -22.566021 -10.925000 11.779204 21.909471 -64.589805 -23.202487 18.205998 -10.523484 -20.686447 29.541301 20.778617 -0.646518 31.715558 17.779602 13.440607 -31.844285 54.404082 -39.504689 3.525717 12.411091 -12.239673 
-0.186146 2.532865 0.925161 -117.082433 -0.438653 97.080557 7.801839 -0.487514 -38.694905 -7.346561 0.866146 28.620410 0.000348 8.450999 -8.812584 0.000000 -0.000000 0.000000 -10.784361 -4.079313 -34.268915 3.910688 2.713643 53.613104 7.824639 1.533058 -20.101742 0.000000 -0.000000 0.000000 -2.714468 4.315801 52.105493 -2.880976 -2.072095 -5.641246 -0.908560 0.286649 -0.901363 -12.297349 10.259341 -23.317944 -2.150631 -0.087031 4.811178 -24.749668 -12.483561 -5.448611 -22.919242 -9.931789 11.965701 21.301168 -65.325185 -21.820061 16.095845 -10.783471 -20.170044 29.388665 20.439493 -0.706792 32.385120 16.700199 13.474217 -32.284207 54.473412 -40.038811 4.249953 12.266971 -12.087764 
-0.166110 2.555781 0.923498 -113.808417 -2.407533 96.859654 7.503328 0.638266 -38.340330 -8.486201 0.504365 26.030816 -3.094481 4.903837 -5.494832 0.000000 -0.000000 0.000000 -10.781595 -5.032908 -33.256525 3.015144 1.004149 53.159284 6.404752 -0.304637 -23.336746 0.000000 -0.000000 0.000000 -2.198086 3.561876 52.512934 -3.538524 -2.400556 -6.092745 -1.436677 -0.048471 -1.006401 -12.117333 9.262365 -23.225604 -1.949106 -0.323397 5.019313 -26.448316 -11.537182 -5.315657 -23.485019 -8.635048 12.522148 17.997203 -65.956200 -16.963545 14.700163 -12.210284 -21.248747 29.386435 19.451988 -0.893647 33.050815 15.188332 13.319973 -32.354681 54.755810 -39.924275 4.822439 12.296313 -12.404049 
-0.150602 2.569979 0.923290 -111.370578 -3.417977 97.086560 7.811361 1.511633 -38.706635 -9.267439 0.402368 24.008809 -7.088927 1.563552 -1.674825 0.000000 -0.000000 0.000000 -10.871983 -6.305971 -33.848327 2.034632 -1.757866 53.625586 5.849964 -0.248976 -23.841274 0.000000 -0.000000 0.000000 -1.637182 2.799699 52.669662 -3.919437 -2.577869 -6.215256 -1.758209 -0.177934 -1.555777 -12.002756 8.613612 -22.922293 -1.804931 -0.778602 4.740310 -27.691423 -10.905759 -5.304459 -23.978756 -7.323036 12.739123 16.956038 -65.928458 -14.712407 10.731919 -13.170387 -17.615322 29.579932 18.951823 -0.716692 32.696236 14.228922 12.511482 -31.560632 55.166167 -39.418341 5.551437 12.335024 -12.071219 
-0.135163 2.583455 0.924155 -109.429939 -4.391876 96.822462 8.465154 2.520655 -38.060695 -10.237546 -0.656106 21.360131 -10.652020 -0.914132 1.685347 0.000000 -0.000000 0.000000 -11.100472 -7.369293 -34.066930 2.122844 -3.158916 54.029895 5.363923 -0.137036 -23.977314 0.000000 -0.000000 0.000000 -1.450183 2.511722 53.308075 -4.201911 -2.678835 -6.195668 -1.838633 -0.309938 -1.992869 -11.812352 7.955219 -22.589073 -1.623478 -0.910377 4.151811 -29.019811 -10.329751 -5.156722 -24.290263 -6.317222 12.946828 15.481932 -65.753007 -12.895701 10.522987 -13.494283 -17.503347 29.718239 18.719612 -0.447477 32.027634 13.592751 11.898740 -30.819844 55.323639 -38.772083 6.068226 12.393685 -11.596746 
-0.120951 2.595843 0.924051 -108.228101 -5.073099 96.435004 9.350280 4.090345 -36.863181 -10.353606 -1.140807 18.699553 -16.910022 -2.497044 4.078712 0.000000 -0.000000 0.000000 -11.016216 -8.139331 -34.200764 1.981366 -4.385389 54.328479 5.093930 0.405218 -24.446049 0.000000 -0.000000 0.000000 -1.265383 2.452057 53.333323 -4.625331 -2.597532 -5.417029 -2.090354 -0.354268 -2.492906 -11.627511 8.145673 -22.359665 -1.310050 -1.501211 4.033361 -29.973316 -9.871046 -5.156121 -24.656804 -5.156227 13.194045 14.424978 -65.218177 -12.250277 10.225083 -13.892761 -18.545129 30.033456 18.508551 -0.337703 31.359288 13.185391 11.306789 -29.347408 55.494359 -37.103631 6.441976 12.297770 -11.202117 
